<svg width="38" height="32" viewBox="0 0 38 32" fill="none" xmlns="http://www.w3.org/2000/svg">
<g clip-path="url(#clip0_53_509)">
<path d="M10.7694 29.3332C11.4303 29.3332 11.966 28.7362 11.966 27.9998C11.966 27.2635 11.4303 26.6665 10.7694 26.6665C10.1085 26.6665 9.57282 27.2635 9.57282 27.9998C9.57282 28.7362 10.1085 29.3332 10.7694 29.3332Z" stroke="#616467" stroke-width="2" stroke-linecap="round" stroke-linejoin="round"/>
<path d="M23.9315 29.3332C24.5924 29.3332 25.1281 28.7362 25.1281 27.9998C25.1281 27.2635 24.5924 26.6665 23.9315 26.6665C23.2707 26.6665 22.735 27.2635 22.735 27.9998C22.735 28.7362 23.2707 29.3332 23.9315 29.3332Z" stroke="#616467" stroke-width="2" stroke-linecap="round" stroke-linejoin="round"/>
<path d="M1.19649 1.3335H5.98281L9.18964 19.1868C9.29907 19.8007 9.59877 20.3521 10.0363 20.7446C10.4738 21.137 11.0212 21.3455 11.5828 21.3335H23.2136C23.7751 21.3455 24.3226 21.137 24.7601 20.7446C25.1976 20.3521 25.4973 19.8007 25.6067 19.1868L27.5213 8.00016H7.17939" stroke="#616467" stroke-width="2" stroke-linecap="round" stroke-linejoin="round"/>
</g>
<ellipse cx="31.6705" cy="6.95716" rx="6.23443" ry="6.04285" fill="#FF6565"/>
<path d="M31.8807 10.5556C31.334 10.5556 30.854 10.4223 30.4407 10.1556C30.0273 9.8823 29.704 9.49563 29.4707 8.99563C29.2373 8.49563 29.1207 7.89897 29.1207 7.20563C29.1207 6.09897 29.3707 5.26563 29.8707 4.70563C30.3707 4.14563 31.0407 3.86897 31.8807 3.87563C32.4207 3.86897 32.8973 4.0023 33.3107 4.27563C33.7307 4.5423 34.0573 4.92563 34.2907 5.42563C34.524 5.92563 34.6407 6.51897 34.6407 7.20563C34.6407 7.91897 34.524 8.52563 34.2907 9.02563C34.0573 9.52563 33.7307 9.90563 33.3107 10.1656C32.8973 10.4256 32.4207 10.5556 31.8807 10.5556ZM31.8707 9.62563C32.2573 9.62563 32.5807 9.52563 32.8407 9.32563C33.1007 9.11897 33.2973 8.8323 33.4307 8.46563C33.564 8.09897 33.634 7.6723 33.6407 7.18563C33.634 6.47897 33.4807 5.90563 33.1807 5.46563C32.8873 5.02563 32.4507 4.80897 31.8707 4.81563C31.4907 4.80897 31.1707 4.90897 30.9107 5.11563C30.6507 5.31563 30.454 5.59563 30.3207 5.95563C30.1873 6.31563 30.1207 6.7323 30.1207 7.20563C30.1207 7.68563 30.1873 8.10897 30.3207 8.47563C30.454 8.83563 30.6507 9.11897 30.9107 9.32563C31.1707 9.52563 31.4907 9.62563 31.8707 9.62563Z" fill="#F5F7FB"/>
<defs>
<clipPath id="clip0_53_509">
<rect width="28.7179" height="32" fill="white"/>
</clipPath>
</defs>
</svg>
